<?xml version="1.0" encoding="UTF-8"?>
<svg id="Camada_1" xmlns="http://www.w3.org/2000/svg" viewBox="0 0 203.24 203.25">
  <defs>
    <style>
      .cls-1 {
        fill: #80ba3d;
      }
    </style>
  </defs>
  <path class="cls-1" d="M99.23,0c-27.4,0-52.22,11.1-70.16,29.07C11.1,47.02,0,71.83,0,99.23c0,57.45,46.56,104.02,104,104.02s99.24-44.43,99.24-99.24V0h-104.01ZM163.42,103.07c0,33.34-27.02,60.36-60.35,60.36-17.24,0-32.87-6.9-44.28-18.09,9.24-13.02,19.01-25.67,29.54-37.61,17.72-19.93,38.19-37.7,60.28-52.75.28-.19.75-.52,1.03-.71t-.01-.03s.02.04.04.05c-.01-.04-.07-.16-.25-.47-.23-.38-.29-.47-.3-.46,0,0,.03.06.03.07,0,0,0-.01-.02-.02l-.04.02-.07.03-.14.08-.29.14-.57.3c-36.86,18.54-69.71,44.54-97.7,74.78-.79.83-1.57,1.66-2.34,2.5-5.2-9.18-8.16-19.79-8.16-31.09,0-16.66,6.75-31.76,17.68-42.67,10.91-10.93,26-17.68,42.66-17.68h63.26v63.25Z"/>
</svg>